<?xml version="1.0" encoding="utf-8"?>
<!-- Generator: Adobe Illustrator 25.0.0, SVG Export Plug-In . SVG Version: 6.00 Build 0)  -->
<svg version="1.1" xmlns="http://www.w3.org/2000/svg" xmlns:xlink="http://www.w3.org/1999/xlink" x="0px" y="0px"
	 viewBox="0 0 549.96 222.44" style="enable-background:new 0 0 549.96 222.44;" xml:space="preserve">
<style type="text/css">
	.st0{fill:#77CCD9;}
	.st1{fill:#8C6239;}
	.st2{fill:#F2F2F2;}
	.st3{fill:#8CC63F;}
	.st4{fill:#603813;}
	.st5{fill:#9C512F;}
	.st6{fill:#D79970;}
	.st7{fill:#42210B;}
	.st8{fill:#E6E6E6;}
	.st9{fill:#39B54A;}
	.st10{fill:#AC5A34;}
	.st11{fill:#754C24;}
	.st12{fill:#FFFFFF;}
	.st13{fill:#FF5733;stroke:#FFFFFF;stroke-width:3;stroke-miterlimit:10;}
	.st14{fill:#FF5733;}
</style>
<g id="background">
	<rect x="998.49" y="-129.8" class="st0" width="800" height="800"/>
	<path class="st1" d="M1600.1,362.19c-14.85,32.21-32.98,64.45-46.72,96.8c-19.06,44.87-40.65,106.76-72.87,143.81
		c-40.54-49.69-52.49-107.28-106.1-149.28c-21.2-16.6-51.07-27.66-65.4-51.31c-16.13-26.62-25.04-48.89-56.07-61.46
		c-62.37-25.27-115.51-50.01-185.01-39.37c-22.57,3.47-53.54,8.39-69.43,24.2v314h800v-271.5
		C1732.55,315.98,1647.03,260.49,1600.1,362.19z"/>
	<path class="st2" d="M1182.92-63.23c-7.69,0-14.9,2.06-21.12,5.64c0.12-0.92,0.19-1.85,0.19-2.8c0-11.87-9.62-21.49-21.49-21.49
		c-3.33,0-6.48,0.76-9.29,2.11c-8.39-6.89-19.14-11.03-30.84-11.03c-19.32,0-36.01,11.27-43.86,27.59
		c-0.24-0.01-0.49-0.02-0.73-0.02c-17.46,0-31.62,14.16-31.62,31.62c0,16.36,12.43,29.82,28.36,31.45c-0.51,2.08-0.79,4.26-0.79,6.5
		c0,15,12.16,27.16,27.16,27.16c11.07,0,20.59-6.63,24.82-16.13c6.69,8.2,16.88,13.44,28.29,13.44c12.13,0,22.87-5.92,29.5-15.03
		c6.29,3.69,13.61,5.81,21.43,5.81c23.43,0,42.42-18.99,42.42-42.42C1225.34-44.24,1206.35-63.23,1182.92-63.23z"/>
	<path class="st2" d="M1641.03,174.92c4.91,0,9.5,1.31,13.47,3.6c-0.08-0.58-0.12-1.18-0.12-1.79c0-7.57,6.14-13.71,13.7-13.71
		c2.12,0,4.13,0.48,5.93,1.34c5.35-4.39,12.21-7.03,19.67-7.03c12.33,0,22.97,7.19,27.98,17.6c0.16,0,0.31-0.01,0.47-0.01
		c11.14,0,20.17,9.03,20.17,20.17c0,10.44-7.93,19.02-18.09,20.06c0.33,1.33,0.5,2.72,0.5,4.15c0,9.57-7.76,17.33-17.33,17.33
		c-7.06,0-13.13-4.23-15.83-10.29c-4.27,5.23-10.76,8.58-18.04,8.58c-7.74,0-14.59-3.78-18.82-9.59c-4.01,2.35-8.68,3.71-13.67,3.71
		c-14.94,0-27.06-12.11-27.06-27.06C1613.97,187.04,1626.09,174.92,1641.03,174.92z"/>
</g>
<g id="objects">
	<path class="st3" d="M1796.76,944.45c0,0-0.01,0.01-0.01,0.01C1799.59,940.14,1798.47,942.74,1796.76,944.45z"/>
	<g>
		<path class="st4" d="M2964.31,661.71c-0.83-5.17-12.21-4.89-15.38-8.34c-1.96-2.12-2.35-5.33-2.88-8.06
			c-0.52-2.63-1.2-5.05-2.14-7.55c-2.11-5.63-3.35-11.16-3.57-17.18c-0.1-2.66-0.02-5.36-0.25-8.02c-0.09-1.03-0.15-2.24-0.77-3.12
			c-1.57-2.25-4.87-3.37-7.07-4.88c-5.11-3.84-7.55-12.39-15.94-13.7c-1.87-0.08-5.1,5.16-6,4.19c-2.87-1.42-5.51-6.85-8.62-7.47
			c-3.11-0.62-14.17,6.19-17.48,5.98c-10.03-3.77-10.97-12.8-19.13-12.56c-2.72,0.08-5.37,0.4-7.98,0.97
			c-11.9,3.88-23.99,1.47-33.11-4.56c-4.11-2.53-8.46-5.06-12.86-6.31c-2.2-0.62-4.42-0.93-6.62-0.75
			c-13.09,0.93-21.33,17.47-29.76,17.09c-12.85-1.15-25.58-5.23-37.94-4.97c-2.47,0.05-4.93,0.28-7.39,0.68
			c-12.75,1.74-25.58-5.39-38.9-1.29c-2.54,0.83-5.33,2.05-8.45,2.9c-17.19,4.53-28.02-13.63-40.38-20.97
			c-2.06-1.22-4.16-2.15-6.37-2.7c-3.98-1.46-7.37-1.16-10.33,0.06c-2.96,1.22-5.47,3.35-7.7,5.58c-1.31,2.47-4.24,5.16-6.11,5.07
			c-18,3.9-33.12,6.05-50.27,11.87c-19.06,6.67-41.13-3.69-60.41,7.78c-2.61,1.34-5.17,2.82-7.69,4.24
			c-1.91,0.85-4.68-0.21-5.58-1.18c-4.4-6.76-10.79-10.8-18.43-8.56c-2.71,0.08-5.31,0.62-7.82,1.52
			c-5.06,1.82-9.36,5.49-12.26,9.99c-1.75,2.72-3.46,5.73-3.69,9.03c-0.21,2.97,0.41,5.76,0.97,8.65c0.67,3.47,0.92,7.15-0.1,10.59
			c-0.67,2.25-2.52,3.59-4.2,5.11c-4.26,3.86-10.85,7.1-13.08,12.69c-1.29,3.23,0.24,6.14,0.14,9.45c-0.12,4.04-2.99,6.64-6.35,8.41
			c-0.21,0.11-0.42,0.21-0.63,0.31H2964.31z"/>
		<path class="st5" d="M2605.33,378.41c0,0-95.71-130.75-161.76-148.04c-66.04-17.29-31,48.91-7.97,18.25
			c0,0,31.41,19.62,42.2,46.49c10.8,26.88,77.39,181.49,137.06,182.44C2674.53,478.51,2605.33,378.41,2605.33,378.41z"/>
		<path class="st6" d="M2443.57,230.37c23.82,6.24,51.49,27.23,77.14,51.52c-2.88-0.25-5.72-0.74-8.6-1.04
			c-0.47-0.05-0.96,0.28-1,0.77c-0.24,2.98,4.81,5.68,2.84,7.75c-0.81,0.86-2.04-1.18-3.12-1.69c-0.42-0.2-1.02,0.05-1.17,0.49
			c-1.77,5.23,6.83,10.91,2.97,14.21c-6.71,5.73-13.83-10.93-20.38-16.84c-0.61-0.55-1.52,0.12-1.42,0.84
			c0.65,5.05,9.55,10.37,5.82,13.8c-1.46,1.34-3.39-2.1-5.35-2.75c-0.43-0.14-1.01,0-1.17,0.49c-0.51,1.62,0.97,4.23-0.53,4.77
			c-0.07,0.02-0.09-0.11-0.13-0.17c-0.32-0.42-1.12-0.48-1.42,0.02c-1,1.72,0.23,4.68-1.54,5.3c-2.38,0.83-3.36-3.66-5.52-4.98
			c-1.34-3.18-2.42-5.81-3.21-7.76c-10.8-26.88-42.2-46.49-42.2-46.49C2412.57,279.29,2377.52,213.08,2443.57,230.37z"/>
		<path class="st7" d="M2443.57,230.37c0.89,0.23,1.8,0.53,2.7,0.8c-0.4,0.2-0.65,0.75-0.42,1.15c1.45,2.53,6.58,2.18,6.38,4.98
			c-0.03,0.35-0.65,0.3-0.65,0.7c-0.01,2.24,3.05,4,1.84,5.61c-1.25,1.67-3.88-1.22-6.08-1.16c-0.75,0.02-0.89,0.94-0.58,1.44
			c1.89,2.98,8.63,4.77,6.92,7.81c-2.43,4.31-9.73-1.77-14.61-2.71c-0.6-0.12-1.04,0.47-1,1.01c0.01,0.1,0.02,0.19,0.03,0.29
			c-1.57-1.08-2.51-1.67-2.51-1.67C2412.57,279.29,2377.52,213.08,2443.57,230.37z"/>
		<path class="st5" d="M2757.83,371.94c0,0,58.3,1.73,96.32,53.08c38.02,51.35,42.4,173.46-14.34,187.1
			C2783.07,625.76,2712.75,416.27,2757.83,371.94z"/>
		<path class="st6" d="M2769.66,526.49c8.03,6.17,9.02,17.64,15.51,25.12c0.42,0.49,1.38,0.25,1.5-0.39
			c1.88-10.19-2.44-20.85,0.95-30.77c10.22,7.44,10.56,23.02,18.76,32.26c0.42,0.47,1.4,0.27,1.5-0.4
			c1.52-10.04-1.17-21.34,3.08-30.82c2.44,1.98,3.87,5.41,5.07,8.18c1.35,3.14,2.8,6.34,3.83,9.6c2.1,6.6,3.25,13.83,7.32,19.6
			c0.41,0.58,1.14,0.57,1.55,0c5-7.01,5.33-16.32,6.55-24.55c1.04-7.06-0.06-16.95,4.2-23.11c5.71,8.89,6.36,20.12,12.78,28.65
			c0.32,0.42,1,0.66,1.41,0.18c3.68-4.34,4.74-10.83,9.02-14.64c2.03,4.01,1.97,8.77,2.5,13.16c0.65,5.34,1.78,10.63,2.38,16
			c0.1,0.86,1.16,1.25,1.67,0.45c3.45-5.46,3.82-14.7,9.44-18.52c0.22,7.71-3.33,14.98-2.84,22.75c0.04,0.69,1,1.3,1.53,0.63
			c1.25-1.57,1.55-4.67,3.04-5.84c0.04-0.03,0.08-0.04,0.12-0.05c-4.74,29.25-17.7,52.61-40.7,58.13
			c-23.9,5.75-50.21-28.11-69.29-72.53C2769.2,535.17,2768.15,530.56,2769.66,526.49z"/>
		<path class="st8" d="M2774.03,404.61c0,0,36.54-19.39,63.39-19.39c0,0,5.97-17.06,17.3-15.99c11.34,1.07,3.73,18.38,3.73,18.38
			s55.35,72.8,27.9,168.86c0,0,8.95,12.53,0.6,18.5c-8.35,5.97-16.11-10.14-16.11-10.14s-39.98,20.88-66.23,17.9
			C2778.34,579.74,2759.71,420.12,2774.03,404.61z"/>
		<path class="st9" d="M2666.77,182.4c0,0-43.05,0.22-82.32,45.05c-39.27,44.83,19.77,4.04,48.97,4.04
			C2662.61,231.49,2666.77,182.4,2666.77,182.4z"/>
		<path class="st3" d="M2735.87,256.41c0,0-3.02-77.41-69.1-74.01c-66.08,3.4-65.94,77.64-65.68,88.49
			C2601.35,281.73,2679.61,236.77,2735.87,256.41z"/>
		<path class="st8" d="M2740.2,283.67c0,0,4.51-6.98,2.92-17.52c-1.59-10.54,1.59-11.6-2.92-14.78
			c-4.51-3.18-33.41-17.24-77.43-10.61c-44.02,6.63-64.97,17.77-66.56,24.93c-1.59,7.16,2.86,13.34,3.16,17.01
			c0.29,3.67,4.53,10.59,7.98,10.18C2610.8,292.47,2660.65,265.31,2740.2,283.67z"/>
		<path class="st5" d="M2732.51,290.81c0,13.62,11.04,24.66,24.66,24.66c13.62,0,24.66-11.04,24.66-24.66
			c0-13.62-11.04-24.66-24.66-24.66C2743.56,266.15,2732.51,277.19,2732.51,290.81z"/>
		<path class="st5" d="M2558.03,297.84c0,13.62,11.04,24.66,24.66,24.66c13.62,0,24.66-11.04,24.66-24.66
			c0-13.62-11.04-24.66-24.66-24.66C2569.07,273.18,2558.03,284.22,2558.03,297.84z"/>
		<path class="st6" d="M2600.98,293.37c0,0-12.73-15.85-31.03-7.03c0,0,11.67,1.26,15.38,7.03l-7.69,4.81l10.34,4.08l-5.3,6.69
			c0,0,12.2,6.89,17.24,0C2604.96,302.05,2600.98,293.37,2600.98,293.37z"/>
		<path class="st6" d="M2742.78,284.22c0,0,11.07-15.85,26.98-7.03c0,0-10.15,1.26-13.37,7.03l6.69,4.81l-8.99,4.08l4.61,6.69
			c0,0-10.61,6.89-14.99,0C2739.32,292.91,2742.78,284.22,2742.78,284.22z"/>
		<path class="st10" d="M2737.63,275.15c0,0-57.28-28.2-133.66,8.87c0,0-17.66,21.03-23.87,93.76
			c-6.98,81.75,0.89,143.21-27.75,189.75s-19.69,86.4-19.69,86.4h306.41c0,0,7.76-64.32-26.85-136.52
			c-34.61-72.2-42.96-131.27-44.16-160.51C2766.86,327.66,2752.54,293.05,2737.63,275.15z"/>
		<path class="st7" d="M2687.78,305.95c0,0,39.8,57.7-9.7,65.39c-49.5,7.69-30.27-61.71-30.27-61.71S2668.04,292.57,2687.78,305.95z
			"/>
		<g>
			<path class="st2" d="M2674.93,336.22l11.03-1.26c1.47-0.17,2.53-1.5,2.36-2.97l0.71-25.31c-0.17-1.47-1.51-2.53-2.97-2.36
				l-14.59,1.67c-1.47,0.17-2.53,1.5-2.36,2.97l2.84,24.91C2672.13,335.33,2673.47,336.39,2674.93,336.22z"/>
			<path class="st2" d="M2657.16,338.25l11.03-1.26c1.47-0.17,2.53-1.5,2.36-2.97l-2.84-24.91c-0.17-1.47-1.5-2.53-2.97-2.36
				l-14.59,1.67c-1.47,0.17-2.53,1.5-2.36,2.97l6.4,24.5C2654.35,337.36,2655.69,338.42,2657.16,338.25z"/>
		</g>
		<path class="st6" d="M2687.08,284.02c0,0,23.13,9.28,13.79,26.47c-9.34,17.19-27.16,11.78-32.47-1.86L2687.08,284.02z"/>
		<path class="st6" d="M2668.4,308.64l-25.46-19.95c0,0-21.43,18.76,0,32.59C2664.37,335.11,2668.4,308.64,2668.4,308.64z"/>
		<g>
			<path class="st7" d="M2722.94,295.57c0.16,0,0.32-0.01,0.48-0.04c1.46-0.26,2.43-1.66,2.17-3.12
				c-2-11.21-12.64-13.83-18.01-13.67c-1.48,0.05-2.65,1.29-2.6,2.77c0.05,1.48,1.3,2.64,2.76,2.6c0.45-0.01,10.88-0.15,12.55,9.25
				C2720.53,294.66,2721.66,295.57,2722.94,295.57z"/>
		</g>
		<g>
			<path class="st7" d="M2608.71,311.56c0.09,0,0.17,0,0.26-0.01c1.47-0.14,2.55-1.45,2.41-2.92l0,0
				c-0.04-0.44-0.87-10.85,8.41-13.13c1.44-0.35,2.32-1.81,1.96-3.25c-0.35-1.44-1.81-2.32-3.25-1.96
				c-11.05,2.72-12.99,13.52-12.48,18.86C2606.17,310.52,2607.34,311.56,2608.71,311.56z"/>
		</g>
		<path class="st7" d="M2687.08,284.02c-2.76-2.97-25.25-10.82-44.14,4.67c0,0,5.3,22.71,25.46,19.95
			C2688.56,305.88,2687.08,284.02,2687.08,284.02z"/>
		<path class="st8" d="M2552.35,244.12c0,11.47,9.3,20.77,20.77,20.77c11.47,0,20.77-9.3,20.77-20.77c0-11.47-9.3-20.77-20.77-20.77
			C2561.65,223.35,2552.35,232.65,2552.35,244.12z"/>
		<path class="st6" d="M2850.5,393.49c0,0,49.61,66.39,28.45,159.77C2878.95,553.26,2859.98,416.47,2850.5,393.49z"/>
		<path class="st7" d="M2850.5,393.49c14.03,27.72,33.83,70.16,28.45,159.77C2878.95,553.26,2859.98,416.47,2850.5,393.49z"/>
		<path class="st7" d="M2852.19,567.53c0,0,4.06-17.09-12.38-20.49c-16.45-3.41-41.82,47.73,0,65.08c0,0,14.18-3.99,20.52-11.83
			c0,0-7.35,2.68-8.13,0.79c-1.01-2.43,9.22-4.29,8.13-6.68c-1.22-2.68-10.04,4.44-11.62,1.95c-1.73-2.73,8.55-7.61,7.38-10.63
			c-0.89-2.29-9.29,0.26-9.56-2.18c-0.26-2.33,8.2-1.72,8.45-4.05c0.21-1.97-6.27-4.86-6.27-4.86S2851.81,573.74,2852.19,567.53z"/>
		<path class="st6" d="M2679.07,430.14c46.95-1.06,111.35,61.69,110.83,223.79h-213.49c-5.03-44.86,44.67-76.79,41.56-120.94
			C2614.85,488.84,2610.31,431.7,2679.07,430.14z"/>
		<path class="st11" d="M3055.75,648.65c-0.37,5.11-13.47,2.98-20.25,3.24c-6.95,0.27-19.6-4.51-20.97,2.53
			c-0.97,4.97,8.19,5.93,12.72,7.81c3.21,1.33,6.49,2.48,9.65,3.93c1.82,0.84,4.22,1.85,5.16,3.83c0.86,1.79-0.61,3.58-1.88,4.63
			c-3.69,3.05-8.28,4.95-12.6,6.77c-9.02,3.8-19.6,3.02-29.12,3.94c-9.63,0.92-29.91,2.38-25.6,12.07
			c3.37,7.6,16.56,0.46,24.81,0.62c6.69,0.13,13.88,0.76,19.23,5.39c0.21,0.17,0.17,0.52,0,0.7c-10.12,11.12-25.67,10.31-39.19,9.95
			c-15.34-0.41-46.55-3.11-42.23,13.49c4.33,16.66,33.15,4.2,49.62,7.22c0.29,0.06,0.46,0.49,0.29,0.74
			c-12.22,17.23-37.69,12.36-55.02,9.49c-8.78-1.45-17.53-3.16-26.36-4.25c-7.71-0.96-15.73-1.67-23.43-0.3
			c-6.54,1.15-12.99,3.97-17.01,9.73c-0.54,0.78,7.2,4.99,7.99,5.31c2.58,1.07,5.26,1.87,8,2.42c5.89,1.2,11.88,1.59,17.83,2.35
			c0.55,0.07,0.64,0.76,0.13,0.98c-4.27,1.81-9.1,2.23-13.65,2.63c-5.88,0.52-11.79,0.76-17.68,1.23
			c-8.25,0.68-29.06,1.42-27.63,14.76c0.34,3.13,1.6,6.1,3.11,8.82h-319.85c0.35-0.43,0.67-0.88,0.96-1.36
			c2.41-4.02,2.14-9.33-1.53-12.52c-4.13-3.59-10.23-4.58-15.49-5.16c-6.09-0.67-12.21-0.69-18.33-0.74
			c-3.79-0.03-8.59,0.5-12.21-0.93c-2.9-1.15-1.05-3.51,0.66-4.86c4.65-3.66,9.5-5.69,15.22-6.97c3.51-0.78,7.05-1.46,10.49-2.5
			c2.37-0.72,6.17-1.7,7.39-4.14c1.61-3.22-3.14-6.62-5.27-8.15c-3.3-2.37-6.92-3.39-10.94-3.88c-9.94-1.2-20.13-0.39-30.06,0.47
			c-15.2,1.31-30.34,3.54-45.57,1.34c-5.52-0.8-13.62-2.12-16.78-7.44c-3.23-5.47,0.98-13.23,5.74-16.36
			c7.3-4.82,17.23-5.15,25.67-5.81c5.08-0.4,10.2-0.68,15.25-1.42c3.69-0.55,10.58,0.71,10.86-3.06
			c1.16-15.87-29.85-9.14-44.99-8.25c-11.96,0.7-24.14,2.2-36.11,0.86c-5.98-0.67-11.92-2.18-17.54-4.35
			c-2.71-1.05-6.55-2.37-8.11-5.07c-2.67-4.64,5.24-8.13,8.28-9.58c7.16-3.4,21.8-1.61,21.8-9.54c0-11.44-22.48-3.86-33.51-3.57
			c-10.38,0.27-21.72,0.2-30.25-6.58c-0.21-0.16-0.18-0.53,0-0.7c7.43-7.21,28.01-2.97,27.17-13c-1.08-12.93-25.96-1.17-38.82-1.15
			c-0.59,0-0.64-0.79-0.13-0.98c3.52-1.29,9.35-1.87,9.51-5.57c0.11-2.32-3.98-2.54-6.25-2.9c18.96-0.81,37.9-2.05,56.87-2.4
			c20.18-0.37,40.35,0.58,60.53,1.23c2.47-5.84,4.03-11.62,4.54-17.96c0.23-2.84,0.28-5.71,0.65-8.53c0.14-1.1,0.27-2.39,0.96-3.3
			c1.78-2.32,5.35-3.36,7.76-4.86c4.6-2.85,8.44-9.12,14.15-9.84c0.96-0.12,1.96-0.14,2.9,0.04h0.01c1.19,0.23,2.27,0.77,3.05,1.8
			c1.96,2.57,3.14,7.34,7.22,7.05c3.28-0.23,5.5-1.59,8.69-0.03c2.57,1.25,4.6,3.05,6.48,5.19c2.22,2.54,4.45,5.3,7.63,6.67
			c3.07,1.31,6.26,1.16,9.42,0.22c7.88-2.33,22.01-12.35,28.58-2.32c1.26,1.92,1.77,4.13,2.84,6.14c0.56,1.05,1.26,1.94,2.08,2.68
			c1.45,1.31,3.28,2.15,5.35,2.59c8.03,1.71,15.86-1.5,23.89-1.35c2.46,0.04,6.5,0.06,8.4,1.93c2.5,2.47,3.19,6.13,7.5,6.13
			c0.52,0,1.02-0.04,1.51-0.11c3.3-0.45,6.16-2.2,9.43-2.93c2.74-0.62,5.83-0.82,8.54,0.07c5.87,1.94,9.9,6.86,16.67,6.31
			c6.92-0.57,12.67-4.67,19.15-6.69c5.25-1.63,10.82-1.79,14.96,2.28c2.99,2.94,5.64,5.83,10.16,5.97
			c4.03,0.12,7.31-1.52,10.56-3.73c3.41-2.31,6.79-4.83,10.56-6.51c1.76-0.78,3.77-1.64,5.75-1.46c3.62,0.31,5.65,3.32,7.69,5.98
			c1.97,2.55,4.04,5.04,6.5,7.13c0.75,0.63,1.35,1.58,2.12,0.59c0.57-0.73,1.13-1.47,1.68-2.22c0.92-1.27,1.85-2.54,2.8-3.78
			c3.09-4.08,7.4-9,12.98-9.1c10.81-0.21,15.03,13.02,24.22,16.32c6.97,2.49,9.44-3.62,13.01-8.22c3.11-4,8.46-6.12,12.93-2.84
			c3.1,2.27,6.13,4.61,9.65,6.24c2,0.93,4.65,2.06,6.35,0.01c1.44-1.76,2.34-3.92,3.54-5.85v-0.01c0.05-0.1,0.12-0.2,0.18-0.3
			c1.68-2.63,3.64-4.96,5.93-7.09c0.19-0.17,0.43-0.19,0.66-0.08c5.12,2.52,8.75,7.76,12.83,11.59c2.05,1.92,4.62,4.55,7.54,5.01
			c2.92,0.46,5.65-1.05,7.81-2.87c3.49-2.95,6.89-6.83,11.76-7.22c1.24-0.1,2.39,0,3.47,0.26c3.45,0.82,6.24,3.21,9.09,5.61
			c2.4,2.03,6.4,6.12,10.33,7.4c1.96-0.32,3.91-0.64,5.86-0.98c3.2-2.63,3.75-7.43,6.27-10.62c2.89-3.65,8.22-4.83,12.62-3.37
			c1.28,0.42,2.53,1.73,3.79,1.93c2.11,0.35,5.97-2.95,7.13-4.33c2.61-3.12,5.48-9.68,10.67-6.89c2.9,1.56,4.78,4.59,8.5,3.4
			c3.02-0.97,3.81-3.45,4.62-6.23c1.09-3.73,3.81-8.99,8.39-9.16c0.3-0.01,0.6-0.01,0.91,0h0.01c2.44,0.12,5.05,0.99,7.42,1.3
			c2.82,0.37,5.56,1.1,8.18,2.18c5.3,2.17,9.72,6.28,12.59,11.22c1.73,2.97,3.42,6.26,3.51,9.79v0.07c1.05-0.1,2.1-0.2,3.15-0.3
			c13.01-1.14,26.04-1.93,39.09-2.4c18-0.66,36.03-0.82,54.04-0.85c-1.16,0.21-2.23,0.78-3.32,1.22
			c-5.18,2.08-10.69,5.1-13.66,10.22c-0.33,0.57-0.69,1.14-0.92,1.76C3034.99,640.78,3056.18,642.78,3055.75,648.65z"/>
	</g>
	<path class="st12" d="M3700.09-410.15c-88.62,0-160.46,46.5-160.46,103.85c0,38.46,32.3,72.03,80.29,89.98
		c1.02,14.36-3.61,33.13-30.43,43.28c0,0,49.54,6.53,72.69-32.33c12.15,1.91,24.85,2.92,37.9,2.92
		c88.62,0,160.46-46.5,160.46-103.85C3860.55-363.66,3788.71-410.15,3700.09-410.15z"/>
	<g>
		<path d="M1728.62,1474.71c1.93-1.07,4.96-2.29,9.09-3.68c4.13-1.39,8.3-2.08,12.52-2.08c7.38,0,13.53,1.34,18.45,4
			c4.92,2.67,7.91,6.56,8.96,11.68c1.93,8.75,3.73,16.92,5.4,24.49c1.67,7.58,3.3,14.83,4.88,21.77c1.58,6.94,3.12,13.82,4.61,20.65
			c1.49,6.83,2.94,13.98,4.35,21.45h1.32c1.58-13.01,2.99-25.45,4.22-37.29c1.23-11.84,2.37-23.47,3.43-34.89
			c1.05-11.41,2.11-22.73,3.16-33.93c1.05-11.2,2.11-22.57,3.16-34.09c6.5-4.48,13.44-6.72,20.83-6.72c6.5,0,12.13,1.71,16.87,5.12
			c4.75,3.42,7.12,9.18,7.12,17.29c0,4.7-0.4,11.36-1.19,20.01c-0.79,8.64-1.84,18.3-3.16,28.97c-1.32,10.67-2.86,21.88-4.61,33.61
			c-1.76,11.74-3.6,22.94-5.54,33.61c-1.94,10.67-3.91,20.33-5.93,28.97c-2.02,8.64-3.91,15.32-5.67,20.01
			c-2.64,2.99-6.94,5.44-12.92,7.36c-5.98,1.92-12.13,2.88-18.45,2.88c-8.26,0-15.25-1.33-20.96-4c-5.71-2.67-9.19-6.45-10.41-11.36
			c-2.29-8.53-4.75-18.67-7.38-30.41c-2.64-11.73-5.45-24.65-8.44-38.73c-2.46,13.88-5.01,27.42-7.64,40.66
			c-2.64,13.23-5.01,24.44-7.12,33.61c-2.64,2.99-6.59,5.44-11.86,7.36s-11.07,2.88-17.4,2.88c-7.91,0-15.07-1.33-21.49-4
			c-6.42-2.67-10.59-6.45-12.52-11.36c-1.58-3.84-3.29-9.55-5.14-17.13c-1.85-7.57-3.74-16.22-5.67-25.93
			c-1.94-9.71-3.91-20.22-5.93-31.53c-2.02-11.31-3.87-22.62-5.54-33.93c-1.67-11.31-3.21-22.35-4.61-33.13
			c-1.41-10.77-2.46-20.65-3.16-29.61c2.46-2.77,5.89-5.33,10.28-7.68c4.39-2.35,9.14-3.52,14.24-3.52c6.68,0,12.17,1.76,16.48,5.28
			c4.3,3.52,6.99,9.44,8.04,17.77c2.81,21.77,5.14,39.91,6.99,54.42c1.85,14.52,3.34,26.41,4.48,35.69
			c1.14,9.28,1.98,16.49,2.5,21.61s1.05,9.18,1.58,12.16h1.32c1.58-8.53,3.07-16.43,4.48-23.69c1.41-7.25,2.85-14.57,4.35-21.93
			c1.49-7.36,3.03-15.26,4.61-23.69C1725.19,1495.25,1726.86,1485.59,1728.62,1474.71z"/>
		<path d="M2025.19,1620.04c-1.94,0.64-4.97,1.28-9.09,1.92c-4.13,0.64-8.22,0.96-12.26,0.96c-4.04,0-7.6-0.38-10.68-1.12
			c-3.08-0.75-5.67-2.08-7.78-4s-3.69-4.59-4.75-8c-1.05-3.41-1.58-7.89-1.58-13.44v-49.94h-50.62v73.63
			c-1.94,0.64-4.97,1.28-9.09,1.92c-4.13,0.64-8.22,0.96-12.26,0.96c-4.04,0-7.6-0.38-10.68-1.12c-3.08-0.75-5.67-2.08-7.78-4
			c-2.11-1.92-3.69-4.59-4.75-8c-1.05-3.41-1.58-7.89-1.58-13.44v-169.02c1.93-0.42,5.01-1.01,9.23-1.76
			c4.22-0.75,8.26-1.12,12.13-1.12c4.04,0,7.6,0.38,10.68,1.12c3.07,0.75,5.67,2.08,7.78,4c2.11,1.92,3.69,4.59,4.75,8
			c1.05,3.42,1.58,7.9,1.58,13.44v51.22h50.62v-74.91c1.93-0.42,5.01-1.01,9.23-1.76c4.22-0.75,8.26-1.12,12.13-1.12
			c4.04,0,7.6,0.38,10.68,1.12c3.07,0.75,5.67,2.08,7.78,4c2.11,1.92,3.69,4.59,4.75,8c1.05,3.42,1.58,7.9,1.58,13.44V1620.04z"/>
		<path d="M2093.47,1433.09c2.99-2.13,7.51-4.16,13.58-6.08s12.17-2.88,18.32-2.88c8.79,0,16.56,1.55,23.33,4.64
			c6.76,3.1,11.11,7.95,13.05,14.57c3.16,11.1,6.59,24.01,10.28,38.73c3.69,14.73,7.38,29.93,11.07,45.62
			c3.69,15.69,7.29,31.16,10.81,46.42c3.51,15.26,6.59,28.76,9.23,40.5c-2.11,2.99-5.27,5.39-9.49,7.2s-9.23,2.72-15.03,2.72
			c-4.22,0-7.78-0.43-10.68-1.28c-2.9-0.86-5.27-2.13-7.12-3.84c-1.84-1.71-3.34-3.95-4.48-6.72c-1.14-2.77-2.15-5.97-3.03-9.6
			l-4.75-22.09h-47.72c-1.41,6.4-2.81,13.02-4.22,19.85c-1.41,6.83-2.81,13.44-4.22,19.85c-2.46,1.07-5.05,1.97-7.78,2.72
			c-2.73,0.75-6.02,1.12-9.89,1.12c-8.96,0-15.6-1.87-19.9-5.6c-4.31-3.73-6.46-8.91-6.46-15.53c0-2.99,0.35-5.97,1.05-8.96
			c0.7-2.99,1.49-6.51,2.37-10.56c1.23-5.76,2.94-12.91,5.14-21.45c2.2-8.53,4.61-17.77,7.25-27.69c2.64-9.92,5.45-20.11,8.44-30.57
			c2.99-10.45,5.8-20.33,8.44-29.61c2.64-9.28,5.05-17.55,7.25-24.81C2090.52,1442.49,2092.24,1436.93,2093.47,1433.09z
			 M2125.1,1474.39c-2.46,8.96-5.23,18.94-8.3,29.93c-3.08,10.99-5.84,22.14-8.3,33.45h32.69c-2.46-11.52-4.97-22.78-7.51-33.77
			c-2.55-10.99-4.88-20.86-6.99-29.61H2125.1z"/>
		<path d="M2303.58,1466.39c-13.54,0-23.9,5.02-31.11,15.04c-7.21,10.03-10.81,24.22-10.81,42.58c0,18.57,4,32.87,12,42.9
			c8,10.03,18.76,15.05,32.29,15.05c7.2,0,13.31-1.17,18.32-3.52c5.01-2.35,9.8-5.01,14.37-8c2.99,2.99,5.31,6.56,6.99,10.72
			c1.67,4.16,2.5,9.02,2.5,14.57c0,8.75-4,16.17-12,22.25c-8,6.08-20.17,9.12-36.51,9.12c-11.78,0-22.85-2.03-33.22-6.08
			c-10.37-4.05-19.42-10.29-27.15-18.73c-7.74-8.43-13.84-19.1-18.32-32.01c-4.48-12.91-6.72-28.33-6.72-46.26
			c0-16.65,2.15-31.32,6.46-44.02c4.3-12.69,10.19-23.42,17.66-32.17c7.47-8.75,16.21-15.37,26.23-19.85
			c10.02-4.48,20.74-6.72,32.16-6.72c16.17,0,28.69,3.2,37.57,9.6c8.87,6.4,13.31,14.62,13.31,24.65c0,5.55-1.15,10.35-3.43,14.41
			c-2.29,4.06-4.92,7.26-7.91,9.6c-4.57-3.63-9.45-6.72-14.63-9.28C2316.45,1467.67,2310.43,1466.39,2303.58,1466.39z"/>
		<path d="M2419.04,1549.3v70.75c-1.94,0.64-5.01,1.28-9.23,1.92c-4.22,0.64-8.35,0.96-12.39,0.96c-4.04,0-7.6-0.38-10.68-1.12
			c-3.08-0.75-5.67-2.08-7.78-4c-2.11-1.92-3.69-4.59-4.75-8c-1.05-3.41-1.58-7.89-1.58-13.44v-169.02
			c1.93-0.42,5.01-1.01,9.23-1.76c4.22-0.75,8.26-1.12,12.13-1.12c4.04,0,7.6,0.38,10.68,1.12c3.07,0.75,5.67,2.08,7.78,4
			c2.11,1.92,3.69,4.59,4.75,8c1.05,3.42,1.58,7.9,1.58,13.44v50.9l54.83-76.51c11.95,0,20.52,2.72,25.7,8.16
			c5.18,5.44,7.78,11.9,7.78,19.37c0,5.55-1.15,10.78-3.43,15.69c-2.29,4.91-5.98,10.46-11.07,16.65l-32.95,40.01
			c4.39,5.98,9,12.16,13.84,18.57c4.83,6.4,9.58,12.64,14.24,18.73c4.65,6.08,9.14,11.9,13.44,17.45c4.3,5.55,8.04,10.35,11.2,14.41
			c0,4.7-0.7,8.86-2.11,12.48c-1.41,3.63-3.29,6.72-5.67,9.28c-2.37,2.56-5.05,4.48-8.04,5.76c-2.99,1.28-6.15,1.92-9.49,1.92
			c-7.21,0-13.09-2.19-17.66-6.56c-4.57-4.37-8.96-9.55-13.18-15.53L2419.04,1549.3z"/>
	</g>
	
		<text transform="matrix(0.8235 0 0 1 818.2748 1712.5648)" style="stroke:#FFFFFF;stroke-width:6;stroke-miterlimit:10; font-family:'Baloo-Regular'; font-size:320.1176px;">WHACK</text>
	<text transform="matrix(0.8235 0 0 1 1619.5072 1216.0724)" style="font-family:'Baloo-Regular'; font-size:320.1176px;">WHACK</text>
	
		<text transform="matrix(0.8235 0 0 1 2937.55 2370.3286)" style="stroke:#FFFFFF;stroke-width:6;stroke-miterlimit:10; font-family:'Baloo-Regular'; font-size:320.1176px;">MOLE</text>
	<text transform="matrix(0.8235 0 0 1 3433.5925 1421.2484)" style="font-family:'Baloo-Regular'; font-size:320.1176px;">MOLE</text>
	<g>
		<path class="st13" d="M417.99,108.77c0-5.97,0.77-11.25,2.32-15.84c1.54-4.59,3.65-8.44,6.33-11.54c2.68-3.1,5.83-5.45,9.45-7.06
			c3.62-1.61,7.55-2.41,11.77-2.41c4.22,0,8.14,0.8,11.77,2.41c3.62,1.61,6.79,3.96,9.5,7.06c2.71,3.1,4.84,6.94,6.38,11.54
			c1.54,4.59,2.32,9.87,2.32,15.84c0,5.97-0.76,11.27-2.27,15.9c-1.51,4.63-3.61,8.49-6.29,11.59c-2.68,3.1-5.85,5.45-9.5,7.06
			c-3.66,1.61-7.63,2.41-11.91,2.41c-4.29,0-8.26-0.82-11.91-2.47c-3.66-1.65-6.81-4.04-9.45-7.17c-2.65-3.14-4.73-7-6.24-11.59
			C418.75,119.91,417.99,114.67,417.99,108.77z M435.01,108.77c0,6.96,1.17,12.17,3.5,15.61c2.33,3.44,5.45,5.17,9.36,5.17
			c3.97,0,7.12-1.72,9.45-5.17c2.33-3.44,3.5-8.65,3.5-15.61c0-6.89-1.15-12.05-3.45-15.5c-2.3-3.44-5.44-5.17-9.41-5.17
			c-3.91,0-7.04,1.7-9.41,5.11C436.19,96.62,435.01,101.81,435.01,108.77z"/>
		<path class="st13" d="M502.93,82.1c0.33-3.27,1.37-5.78,3.12-7.53c1.76-1.75,3.98-2.49,6.68-2.22l31.04,3.08
			c0.35,0.88,0.64,2.02,0.85,3.43c0.21,1.41,0.24,2.87,0.09,4.39c-0.29,2.9-1.01,4.9-2.17,6.01c-1.16,1.12-2.58,1.59-4.27,1.42
			l-19.85-1.97l-1.06,10.62l21.17,2.1c0.35,0.88,0.64,2.01,0.85,3.37c0.21,1.37,0.24,2.81,0.09,4.33c-0.29,2.9-0.99,4.9-2.12,6.02
			c-1.12,1.12-2.53,1.59-4.23,1.43l-17.31-1.72l-1.19,11.99l24.18,2.4c0.35,0.88,0.64,2.02,0.85,3.43c0.21,1.41,0.24,2.87,0.09,4.39
			c-0.29,2.9-1.01,4.92-2.17,6.07c-1.16,1.15-2.59,1.65-4.28,1.48l-27.47-2.73c-2.7-0.27-4.74-1.43-6.11-3.49
			c-1.38-2.06-1.91-4.73-1.58-8L502.93,82.1z"/>
		<path class="st13" d="M401.73,124.4c-0.82,0.84-1.88,1.51-3.17,2.01c-1.29,0.5-2.79,0.75-4.49,0.75c-2.27,0-4.14-0.34-5.62-1.03
			c-1.48-0.69-2.44-1.87-2.88-3.56c-1.76-6.73-3.21-12.19-4.35-16.36c-1.13-4.17-2.02-7.82-2.65-10.96h-0.47
			c-0.19,4.52-0.33,8.63-0.43,12.34c-0.09,3.71-0.16,7.33-0.19,10.85c-0.03,3.52-0.09,7.08-0.19,10.68
			c-0.09,3.6-0.24,7.58-0.43,11.94c-0.82,0.38-1.89,0.71-3.21,0.98c-1.32,0.27-2.65,0.4-3.97,0.4c-2.77,0-4.93-0.54-6.48-1.61
			c-1.55-1.07-2.32-3.02-2.32-5.85l2.74-58.54c0.5-0.99,1.61-2.07,3.31-3.21c1.7-1.15,4.1-1.72,7.18-1.72
			c3.34,0,5.96,0.63,7.85,1.89c1.89,1.26,3.28,3.31,4.16,6.14c0.57,1.84,1.18,3.94,1.84,6.31c0.66,2.37,1.32,4.82,1.99,7.35
			c0.66,2.53,1.31,5.03,1.94,7.52c0.63,2.49,1.2,4.73,1.7,6.72h0.47c1.51-6.43,3.02-12.65,4.54-18.65c1.51-6.01,2.9-11.04,4.16-15.1
			c0.95-0.61,2.16-1.13,3.64-1.55c1.48-0.42,3.13-0.63,4.96-0.63c3.09,0,5.61,0.56,7.56,1.66c1.95,1.11,3.09,2.7,3.4,4.76
			c0.25,1.53,0.52,3.89,0.8,7.06c0.28,3.18,0.58,6.76,0.9,10.73c0.31,3.98,0.63,8.19,0.95,12.63c0.31,4.44,0.61,8.71,0.9,12.8
			c0.28,4.1,0.52,7.85,0.71,11.25c0.19,3.41,0.31,6.03,0.38,7.86c-1.07,0.77-2.19,1.32-3.36,1.66c-1.17,0.34-2.66,0.52-4.49,0.52
			c-2.4,0-4.41-0.5-6.05-1.49c-1.64-0.99-2.52-2.95-2.65-5.85c-0.38-8.34-0.61-15.84-0.71-22.5c-0.09-6.66-0.24-12.24-0.43-16.76
			h-0.47c-0.63,2.98-1.55,6.73-2.74,11.25C404.88,111.58,403.43,117.36,401.73,124.4z"/>
		<path class="st13" d="M479.91,144.01c-2.71,0-4.85-0.96-6.43-2.87c-1.58-1.91-2.36-4.51-2.36-7.81V73.99
			c0.69-0.15,1.8-0.36,3.31-0.63c1.51-0.27,2.96-0.4,4.35-0.4c1.45,0,2.73,0.13,3.83,0.4c1.1,0.27,2.03,0.75,2.79,1.44
			c0.76,0.69,1.32,1.65,1.7,2.87c0.38,1.22,0.57,2.83,0.57,4.82v45.34h21.65c0.44,0.84,0.85,1.97,1.23,3.39
			c0.38,1.42,0.57,2.89,0.57,4.42c0,3.06-0.54,5.22-1.61,6.49c-1.07,1.26-2.49,1.89-4.25,1.89H479.91z"/>
	</g>
	<g>
		<path class="st13" d="M129.44,141.26c-0.69,0.23-1.78,0.46-3.26,0.69c-1.48,0.23-2.95,0.34-4.4,0.34c-1.45,0-2.73-0.13-3.83-0.4
			c-1.1-0.27-2.03-0.75-2.79-1.44c-0.76-0.69-1.32-1.64-1.7-2.87c-0.38-1.22-0.57-2.83-0.57-4.82v-17.91H94.74v26.4
			c-0.69,0.23-1.78,0.46-3.26,0.69c-1.48,0.23-2.95,0.34-4.4,0.34c-1.45,0-2.73-0.13-3.83-0.4c-1.1-0.27-2.03-0.75-2.79-1.44
			c-0.76-0.69-1.32-1.64-1.7-2.87c-0.38-1.22-0.57-2.83-0.57-4.82V72.16c0.69-0.15,1.8-0.36,3.31-0.63c1.51-0.27,2.96-0.4,4.35-0.4
			c1.45,0,2.73,0.13,3.83,0.4c1.1,0.27,2.03,0.75,2.79,1.44c0.76,0.69,1.32,1.65,1.7,2.87c0.38,1.22,0.57,2.83,0.57,4.82v18.37
			h18.15V72.16c0.69-0.15,1.8-0.36,3.31-0.63c1.51-0.27,2.96-0.4,4.35-0.4c1.45,0,2.73,0.13,3.83,0.4c1.1,0.27,2.03,0.75,2.79,1.44
			c0.76,0.69,1.32,1.65,1.7,2.87c0.38,1.22,0.57,2.83,0.57,4.82V141.26z"/>
		<path class="st13" d="M137.75,74.22c1.07-0.76,2.69-1.49,4.87-2.18c2.17-0.69,4.36-1.03,6.57-1.03c3.15,0,5.94,0.56,8.37,1.66
			c2.43,1.11,3.99,2.85,4.68,5.22c1.13,3.98,2.36,8.61,3.69,13.89c1.32,5.28,2.65,10.73,3.97,16.36c1.32,5.63,2.61,11.17,3.88,16.64
			c1.26,5.47,2.36,10.31,3.31,14.52c-0.76,1.07-1.89,1.93-3.4,2.58c-1.51,0.65-3.31,0.98-5.39,0.98c-1.51,0-2.79-0.15-3.83-0.46
			c-1.04-0.31-1.89-0.76-2.55-1.38c-0.66-0.61-1.2-1.42-1.61-2.41c-0.41-0.99-0.77-2.14-1.09-3.44l-1.7-7.92H140.4
			c-0.51,2.3-1.01,4.67-1.51,7.12c-0.51,2.45-1.01,4.82-1.51,7.12c-0.88,0.38-1.81,0.71-2.79,0.98c-0.98,0.27-2.16,0.4-3.54,0.4
			c-3.21,0-5.59-0.67-7.14-2.01c-1.55-1.34-2.32-3.19-2.32-5.57c0-1.07,0.13-2.14,0.38-3.21c0.25-1.07,0.53-2.33,0.85-3.79
			c0.44-2.07,1.05-4.63,1.84-7.69c0.79-3.06,1.65-6.37,2.6-9.93c0.95-3.56,1.95-7.21,3.02-10.96c1.07-3.75,2.08-7.29,3.03-10.62
			c0.95-3.33,1.81-6.29,2.6-8.9C136.7,77.59,137.31,75.6,137.75,74.22z M149.1,89.03c-0.88,3.21-1.88,6.79-2.98,10.73
			c-1.1,3.94-2.1,7.94-2.98,12h11.72c-0.88-4.13-1.78-8.17-2.69-12.11c-0.91-3.94-1.75-7.48-2.51-10.62H149.1z"/>
		<path class="st13" d="M219.15,114.74v25.37c-0.69,0.23-1.8,0.46-3.31,0.69c-1.51,0.23-2.99,0.34-4.44,0.34
			c-1.45,0-2.73-0.13-3.83-0.4c-1.1-0.27-2.03-0.75-2.79-1.44c-0.76-0.69-1.32-1.64-1.7-2.87c-0.38-1.22-0.57-2.83-0.57-4.82V71.01
			c0.69-0.15,1.8-0.36,3.31-0.63c1.51-0.27,2.96-0.4,4.35-0.4c1.45,0,2.73,0.13,3.83,0.4c1.1,0.27,2.03,0.75,2.79,1.44
			c0.76,0.69,1.32,1.65,1.7,2.87c0.38,1.22,0.57,2.83,0.57,4.82v18.25l19.66-27.44c4.29,0,7.36,0.98,9.22,2.93
			c1.86,1.95,2.79,4.27,2.79,6.94c0,1.99-0.41,3.87-1.23,5.62c-0.82,1.76-2.14,3.75-3.97,5.97l-11.82,14.35
			c1.57,2.14,3.23,4.36,4.96,6.66c1.73,2.3,3.43,4.53,5.1,6.72c1.67,2.18,3.28,4.27,4.82,6.26c1.54,1.99,2.88,3.71,4.02,5.17
			c0,1.68-0.25,3.18-0.76,4.48c-0.5,1.3-1.18,2.41-2.03,3.33c-0.85,0.92-1.81,1.61-2.88,2.07c-1.07,0.46-2.21,0.69-3.4,0.69
			c-2.59,0-4.7-0.79-6.33-2.35c-1.64-1.57-3.21-3.42-4.73-5.57L219.15,114.74z"/>
		<path class="st13" d="M35.41,88.69c0.69-0.38,1.78-0.82,3.26-1.32c1.48-0.5,2.98-0.75,4.49-0.75c2.65,0,4.85,0.48,6.62,1.43
			c1.76,0.96,2.84,2.35,3.21,4.19c0.69,3.14,1.34,6.07,1.94,8.78c0.6,2.72,1.18,5.32,1.75,7.81c0.57,2.49,1.12,4.96,1.65,7.4
			c0.53,2.45,1.05,5.01,1.56,7.69h0.47c0.57-4.67,1.07-9.13,1.51-13.37c0.44-4.25,0.85-8.42,1.23-12.51
			c0.38-4.09,0.76-8.15,1.13-12.17c0.38-4.02,0.76-8.09,1.13-12.23c2.33-1.61,4.82-2.41,7.47-2.41c2.33,0,4.35,0.61,6.05,1.84
			c1.7,1.22,2.55,3.29,2.55,6.2c0,1.68-0.14,4.08-0.43,7.17c-0.28,3.1-0.66,6.56-1.13,10.39c-0.47,3.83-1.03,7.85-1.65,12.05
			c-0.63,4.21-1.29,8.23-1.99,12.05c-0.69,3.83-1.4,7.29-2.13,10.39c-0.73,3.1-1.4,5.49-2.03,7.17c-0.95,1.07-2.49,1.95-4.63,2.64
			c-2.14,0.69-4.35,1.03-6.62,1.03c-2.96,0-5.47-0.48-7.52-1.43c-2.05-0.96-3.29-2.31-3.73-4.08c-0.82-3.06-1.7-6.7-2.65-10.91
			c-0.95-4.21-1.95-8.84-3.03-13.89c-0.88,4.98-1.8,9.83-2.74,14.58c-0.95,4.75-1.8,8.76-2.55,12.05c-0.95,1.07-2.36,1.95-4.25,2.64
			s-3.97,1.03-6.24,1.03c-2.84,0-5.4-0.48-7.7-1.43c-2.3-0.96-3.8-2.31-4.49-4.08c-0.57-1.38-1.18-3.42-1.84-6.14
			c-0.66-2.72-1.34-5.81-2.03-9.3c-0.69-3.48-1.4-7.25-2.13-11.31c-0.73-4.06-1.39-8.11-1.99-12.17c-0.6-4.06-1.15-8.02-1.65-11.88
			c-0.5-3.86-0.88-7.4-1.13-10.62c0.88-0.99,2.11-1.91,3.69-2.75c1.57-0.84,3.28-1.26,5.1-1.26c2.39,0,4.36,0.63,5.91,1.89
			c1.54,1.26,2.51,3.39,2.88,6.37c1.01,7.81,1.84,14.31,2.51,19.51c0.66,5.21,1.2,9.47,1.61,12.8c0.41,3.33,0.71,5.91,0.9,7.75
			c0.19,1.84,0.38,3.29,0.57,4.36h0.47c0.57-3.06,1.1-5.89,1.61-8.49c0.5-2.6,1.02-5.22,1.56-7.86c0.53-2.64,1.09-5.47,1.65-8.49
			C34.18,96.05,34.78,92.59,35.41,88.69z"/>
		<path class="st13" d="M196.93,86.16c2.46,0,4.62,0.46,6.48,1.38c1.32,0.65,2.59,1.41,3.8,2.26V72.93
			c-3.13-1.97-7.37-2.95-12.74-2.95c-4.1,0-7.94,0.8-11.54,2.41c-3.59,1.61-6.73,3.98-9.41,7.12c-2.68,3.14-4.79,6.99-6.33,11.54
			c-1.55,4.55-2.32,9.81-2.32,15.79c0,6.43,0.8,11.96,2.41,16.59c1.61,4.63,3.8,8.46,6.57,11.48c2.78,3.02,6.02,5.26,9.74,6.71
			c3.72,1.46,7.69,2.18,11.91,2.18c4.98,0,8.88-0.79,11.7-2.36v-16.56c-0.93,0.53-1.88,1.02-2.86,1.48
			c-1.8,0.84-3.98,1.26-6.57,1.26c-4.85,0-8.71-1.8-11.58-5.4c-2.87-3.59-4.3-8.72-4.3-15.38c0-6.58,1.29-11.67,3.88-15.27
			C188.36,87.96,192.08,86.16,196.93,86.16z"/>
	</g>
	<g>
		<path class="st4" d="M398.31,174.41c-0.3-1.85-4.38-1.75-5.52-2.99c-0.7-0.76-0.84-1.91-1.03-2.89c-0.19-0.94-0.43-1.81-0.77-2.71
			c-0.76-2.02-1.2-4-1.28-6.16c-0.04-0.96-0.01-1.92-0.09-2.88c-0.03-0.37-0.05-0.8-0.28-1.12c-0.56-0.81-1.75-1.21-2.54-1.75
			c-1.83-1.38-2.71-4.44-5.71-4.91c-0.67-0.03-1.83,1.85-2.15,1.5c-1.03-0.51-1.98-2.46-3.09-2.68c-1.12-0.22-5.08,2.22-6.27,2.15
			c-3.6-1.35-3.93-4.59-6.86-4.5c-0.98,0.03-1.93,0.14-2.86,0.35c-4.27,1.39-8.6,0.53-11.87-1.64c-1.47-0.91-3.03-1.82-4.61-2.26
			c-0.79-0.22-1.58-0.33-2.38-0.27c-4.69,0.34-7.65,6.26-10.67,6.13c-4.61-0.41-9.17-1.88-13.61-1.78c-0.89,0.02-1.77,0.1-2.65,0.24
			c-4.57,0.62-9.17-1.93-13.95-0.46c-0.91,0.3-1.91,0.74-3.03,1.04c-6.16,1.63-10.05-4.89-14.48-7.52
			c-0.74-0.44-1.49-0.77-2.28-0.97c-1.43-0.52-2.64-0.42-3.7,0.02c-1.06,0.44-1.96,1.2-2.76,2c-0.47,0.89-1.52,1.85-2.19,1.82
			c-6.46,1.4-11.88,2.17-18.03,4.26c-6.84,2.39-14.75-1.32-21.66,2.79c-0.94,0.48-1.85,1.01-2.76,1.52c-0.69,0.31-1.68-0.07-2-0.42
			c-1.58-2.43-3.87-3.87-6.61-3.07c-0.97,0.03-1.91,0.22-2.8,0.55c-1.81,0.65-3.36,1.97-4.39,3.58c-0.63,0.97-1.24,2.05-1.32,3.24
			c-0.07,1.06,0.15,2.06,0.35,3.1c0.24,1.24,0.33,2.56-0.04,3.8c-0.24,0.81-0.9,1.29-1.51,1.83c-1.53,1.38-3.89,2.55-4.69,4.55
			c-0.46,1.16,0.09,2.2,0.05,3.39c-0.04,1.45-1.07,2.38-2.28,3.02c-0.07,0.04-0.15,0.07-0.23,0.11H398.31z"/>
		<path class="st5" d="M269.58,72.83c0,0-34.32-46.89-58.01-53.09c-23.68-6.2-11.12,17.54-2.86,6.54c0,0,11.26,7.03,15.13,16.67
			c3.87,9.64,27.75,65.08,49.15,65.42C294.4,108.72,269.58,72.83,269.58,72.83z"/>
		<path class="st6" d="M211.57,19.74c8.54,2.24,18.46,9.76,27.66,18.47c-1.03-0.09-2.05-0.27-3.08-0.37
			c-0.17-0.02-0.35,0.1-0.36,0.28c-0.09,1.07,1.72,2.04,1.02,2.78c-0.29,0.31-0.73-0.42-1.12-0.61c-0.15-0.07-0.36,0.02-0.42,0.18
			c-0.63,1.88,2.45,3.91,1.07,5.1c-2.41,2.05-4.96-3.92-7.31-6.04c-0.22-0.2-0.54,0.04-0.51,0.3c0.23,1.81,3.42,3.72,2.09,4.95
			c-0.52,0.48-1.21-0.75-1.92-0.99c-0.15-0.05-0.36,0-0.42,0.18c-0.18,0.58,0.35,1.52-0.19,1.71c-0.02,0.01-0.03-0.04-0.05-0.06
			c-0.11-0.15-0.4-0.17-0.51,0.01c-0.36,0.62,0.08,1.68-0.55,1.9c-0.85,0.3-1.21-1.31-1.98-1.79c-0.48-1.14-0.87-2.08-1.15-2.78
			c-3.87-9.64-15.13-16.67-15.13-16.67C200.46,37.28,187.89,13.54,211.57,19.74z"/>
		<path class="st7" d="M211.57,19.74c0.32,0.08,0.64,0.19,0.97,0.29c-0.14,0.07-0.23,0.27-0.15,0.41c0.52,0.91,2.36,0.78,2.29,1.78
			c-0.01,0.13-0.23,0.11-0.23,0.25c-0.01,0.8,1.09,1.43,0.66,2.01c-0.45,0.6-1.39-0.44-2.18-0.42c-0.27,0.01-0.32,0.34-0.21,0.52
			c0.68,1.07,3.1,1.71,2.48,2.8c-0.87,1.55-3.49-0.63-5.24-0.97c-0.22-0.04-0.37,0.17-0.36,0.36c0,0.04,0.01,0.07,0.01,0.1
			c-0.56-0.39-0.9-0.6-0.9-0.6C200.46,37.28,187.89,13.54,211.57,19.74z"/>
		<path class="st5" d="M324.26,70.51c0,0,20.91,0.62,34.54,19.04c13.63,18.41,15.2,62.2-5.14,67.09
			C333.32,161.52,308.1,86.4,324.26,70.51z"/>
		<path class="st6" d="M328.51,125.93c2.88,2.21,3.23,6.33,5.56,9.01c0.15,0.17,0.49,0.09,0.54-0.14c0.67-3.65-0.88-7.48,0.34-11.03
			c3.67,2.67,3.79,8.26,6.73,11.57c0.15,0.17,0.5,0.1,0.54-0.14c0.54-3.6-0.42-7.65,1.1-11.05c0.88,0.71,1.39,1.94,1.82,2.93
			c0.48,1.12,1,2.27,1.38,3.44c0.75,2.37,1.17,4.96,2.62,7.03c0.15,0.21,0.41,0.2,0.55,0c1.79-2.52,1.91-5.85,2.35-8.8
			c0.37-2.53-0.02-6.08,1.5-8.29c2.05,3.19,2.28,7.21,4.58,10.27c0.11,0.15,0.36,0.24,0.5,0.06c1.32-1.56,1.7-3.88,3.24-5.25
			c0.73,1.44,0.71,3.15,0.9,4.72c0.23,1.92,0.64,3.81,0.85,5.74c0.03,0.31,0.42,0.45,0.6,0.16c1.24-1.96,1.37-5.27,3.39-6.64
			c0.08,2.76-1.19,5.37-1.02,8.16c0.02,0.25,0.36,0.47,0.55,0.23c0.45-0.56,0.56-1.68,1.09-2.09c0.02-0.01,0.03-0.01,0.04-0.02
			c-1.7,10.49-6.35,18.86-14.59,20.85c-8.57,2.06-18.01-10.08-24.85-26.01C328.34,129.04,327.97,127.39,328.51,125.93z"/>
		<path class="st8" d="M330.07,82.22c0,0,13.1-6.95,22.73-6.95c0,0,2.14-6.12,6.21-5.73c4.07,0.38,1.34,6.59,1.34,6.59
			s19.85,26.1,10,60.55c0,0,3.21,4.49,0.21,6.63c-3,2.14-5.78-3.64-5.78-3.64s-14.34,7.49-23.75,6.42
			C331.62,145.02,324.94,87.78,330.07,82.22z"/>
		<path class="st9" d="M291.61,2.54c0,0-15.44,0.08-29.52,16.15c-14.08,16.07,7.09,1.45,17.56,1.45
			C290.12,20.14,291.61,2.54,291.61,2.54z"/>
		<path class="st3" d="M316.39,29.08c0,0-1.08-27.76-24.78-26.54c-23.7,1.22-23.64,27.84-23.55,31.73
			C268.15,38.16,296.22,22.04,316.39,29.08z"/>
		<path class="st8" d="M317.95,38.85c0,0,1.62-2.5,1.05-6.28c-0.57-3.78,0.57-4.16-1.05-5.3c-1.62-1.14-11.98-6.18-27.77-3.8
			c-15.79,2.38-23.3,6.37-23.87,8.94c-0.57,2.57,1.03,4.78,1.13,6.1c0.1,1.32,1.63,3.8,2.86,3.65
			C271.54,42.01,289.42,32.27,317.95,38.85z"/>
		<path class="st5" d="M315.19,41.41c0,4.88,3.96,8.84,8.84,8.84c4.88,0,8.84-3.96,8.84-8.84c0-4.88-3.96-8.84-8.84-8.84
			C319.15,32.57,315.19,36.53,315.19,41.41z"/>
		<path class="st5" d="M252.62,43.93c0,4.88,3.96,8.84,8.84,8.84c4.88,0,8.84-3.96,8.84-8.84c0-4.88-3.96-8.84-8.84-8.84
			C256.58,35.09,252.62,39.05,252.62,43.93z"/>
		<path class="st6" d="M268.02,42.33c0,0-4.56-5.68-11.13-2.52c0,0,4.18,0.45,5.52,2.52l-2.76,1.73l3.71,1.46l-1.9,2.4
			c0,0,4.37,2.47,6.18,0C269.45,45.45,268.02,42.33,268.02,42.33z"/>
		<path class="st6" d="M318.87,39.05c0,0,3.97-5.68,9.67-2.52c0,0-3.64,0.45-4.8,2.52l2.4,1.73l-3.22,1.46l1.65,2.4
			c0,0-3.8,2.47-5.37,0C317.63,42.17,318.87,39.05,318.87,39.05z"/>
		<path class="st10" d="M317.02,35.8c0,0-20.54-10.11-47.93,3.18c0,0-6.33,7.54-8.56,33.62c-2.5,29.31,0.32,51.35-9.95,68.04
			c-10.27,16.69-7.06,30.98-7.06,30.98H353.4c0,0,2.78-23.07-9.63-48.96c-12.41-25.89-15.41-47.07-15.83-57.56
			S322.37,42.22,317.02,35.8z"/>
		<path class="st7" d="M299.14,46.84c0,0,14.27,20.69-3.48,23.45c-17.75,2.76-10.85-22.13-10.85-22.13S292.07,42.05,299.14,46.84z"
			/>
		<g>
			<path class="st2" d="M294.54,57.7l3.96-0.45c0.53-0.06,0.91-0.54,0.85-1.07l0.26-9.08c-0.06-0.53-0.54-0.91-1.07-0.85l-5.23,0.6
				c-0.53,0.06-0.91,0.54-0.85,1.07l1.02,8.93C293.53,57.38,294.01,57.76,294.54,57.7z"/>
			<path class="st2" d="M288.16,58.43l3.96-0.45c0.53-0.06,0.91-0.54,0.85-1.07l-1.02-8.93c-0.06-0.53-0.54-0.91-1.07-0.85
				l-5.23,0.6c-0.53,0.06-0.91,0.54-0.85,1.07l2.3,8.79C287.16,58.1,287.64,58.49,288.16,58.43z"/>
		</g>
		<path class="st6" d="M298.89,38.98c0,0,8.29,3.33,4.95,9.49c-3.35,6.16-9.74,4.22-11.64-0.67L298.89,38.98z"/>
		<path class="st6" d="M292.2,47.81l-9.13-7.15c0,0-7.69,6.73,0,11.69C290.75,57.3,292.2,47.81,292.2,47.81z"/>
		<g>
			<path class="st7" d="M311.75,43.12c0.06,0,0.11-0.01,0.17-0.02c0.52-0.09,0.87-0.59,0.78-1.12c-0.72-4.02-4.53-4.96-6.46-4.9
				c-0.53,0.02-0.95,0.46-0.93,0.99c0.02,0.53,0.46,0.95,0.99,0.93c0.16,0,3.9-0.05,4.5,3.32C310.89,42.79,311.3,43.12,311.75,43.12
				z"/>
		</g>
		<g>
			<path class="st7" d="M270.79,48.85c0.03,0,0.06,0,0.09,0c0.53-0.05,0.91-0.52,0.87-1.05l0,0c-0.01-0.16-0.31-3.89,3.02-4.71
				c0.52-0.13,0.83-0.65,0.7-1.17c-0.13-0.52-0.65-0.83-1.17-0.7c-3.96,0.98-4.66,4.85-4.47,6.76
				C269.88,48.48,270.3,48.85,270.79,48.85z"/>
		</g>
		<path class="st7" d="M298.89,38.98c-0.99-1.07-9.06-3.88-15.83,1.67c0,0,1.9,8.14,9.13,7.15
			C299.43,46.82,298.89,38.98,298.89,38.98z"/>
		<path class="st8" d="M250.58,24.67c0,4.11,3.33,7.45,7.45,7.45c4.11,0,7.45-3.33,7.45-7.45c0-4.11-3.33-7.45-7.45-7.45
			C253.92,17.22,250.58,20.56,250.58,24.67z"/>
		<path class="st6" d="M357.5,78.23c0,0,17.79,23.81,10.2,57.29C367.7,135.53,360.9,86.48,357.5,78.23z"/>
		<path class="st7" d="M357.5,78.23c5.03,9.94,12.13,25.16,10.2,57.29C367.7,135.53,360.9,86.48,357.5,78.23z"/>
		<path class="st7" d="M358.1,140.64c0,0,1.46-6.13-4.44-7.35c-5.9-1.22-15,17.12,0,23.34c0,0,5.08-1.43,7.36-4.24
			c0,0-2.64,0.96-2.92,0.28c-0.36-0.87,3.31-1.54,2.92-2.4c-0.44-0.96-3.6,1.59-4.17,0.7c-0.62-0.98,3.07-2.73,2.65-3.81
			c-0.32-0.82-3.33,0.09-3.43-0.78c-0.09-0.83,2.94-0.62,3.03-1.45c0.08-0.71-2.25-1.74-2.25-1.74S357.97,142.87,358.1,140.64z"/>
		<path class="st6" d="M296.02,91.38c16.84-0.38,39.93,22.12,39.74,80.25h-76.56c-1.8-16.09,16.02-27.53,14.9-43.37
			C272.99,112.43,271.37,91.94,296.02,91.38z"/>
		<path class="st11" d="M431.1,169.73c-0.13,1.83-4.83,1.07-7.26,1.16c-2.49,0.1-7.03-1.62-7.52,0.91c-0.35,1.78,2.94,2.13,4.56,2.8
			c1.15,0.48,2.33,0.89,3.46,1.41c0.65,0.3,1.51,0.66,1.85,1.37c0.31,0.64-0.22,1.28-0.67,1.66c-1.32,1.09-2.97,1.78-4.52,2.43
			c-3.23,1.36-7.03,1.08-10.44,1.41c-3.45,0.33-10.73,0.85-9.18,4.33c1.21,2.73,5.94,0.16,8.9,0.22c2.4,0.05,4.98,0.27,6.9,1.93
			c0.08,0.06,0.06,0.19,0,0.25c-3.63,3.99-9.21,3.7-14.05,3.57c-5.5-0.15-16.69-1.12-15.14,4.84c1.55,5.97,11.89,1.51,17.79,2.59
			c0.1,0.02,0.16,0.18,0.1,0.27c-4.38,6.18-13.52,4.43-19.73,3.4c-3.15-0.52-6.29-1.13-9.45-1.52c-2.76-0.34-5.64-0.6-8.4-0.11
			c-2.35,0.41-4.66,1.42-6.1,3.49c-0.19,0.28,2.58,1.79,2.87,1.9c0.93,0.38,1.89,0.67,2.87,0.87c2.11,0.43,4.26,0.57,6.39,0.84
			c0.2,0.03,0.23,0.27,0.05,0.35c-1.53,0.65-3.26,0.8-4.89,0.94c-2.11,0.19-4.23,0.27-6.34,0.44c-2.96,0.24-10.42,0.51-9.91,5.29
			c0.12,1.12,0.57,2.19,1.12,3.16h-114.7c0.13-0.15,0.24-0.32,0.34-0.49c0.86-1.44,0.77-3.35-0.55-4.49
			c-1.48-1.29-3.67-1.64-5.55-1.85c-2.18-0.24-4.38-0.25-6.57-0.27c-1.36-0.01-3.08,0.18-4.38-0.33c-1.04-0.41-0.38-1.26,0.24-1.74
			c1.67-1.31,3.41-2.04,5.46-2.5c1.26-0.28,2.53-0.52,3.76-0.9c0.85-0.26,2.21-0.61,2.65-1.48c0.58-1.15-1.13-2.37-1.89-2.92
			c-1.18-0.85-2.48-1.22-3.92-1.39c-3.56-0.43-7.22-0.14-10.78,0.17c-5.45,0.47-10.88,1.27-16.34,0.48
			c-1.98-0.29-4.88-0.76-6.02-2.67c-1.16-1.96,0.35-4.74,2.06-5.87c2.62-1.73,6.18-1.85,9.21-2.08c1.82-0.14,3.66-0.24,5.47-0.51
			c1.32-0.2,3.79,0.25,3.89-1.1c0.42-5.69-10.7-3.28-16.13-2.96c-4.29,0.25-8.66,0.79-12.95,0.31c-2.14-0.24-4.27-0.78-6.29-1.56
			c-0.97-0.38-2.35-0.85-2.91-1.82c-0.96-1.66,1.88-2.92,2.97-3.44c2.57-1.22,7.82-0.58,7.82-3.42c0-4.1-8.06-1.38-12.02-1.28
			c-3.72,0.1-7.79,0.07-10.85-2.36c-0.08-0.06-0.06-0.19,0-0.25c2.66-2.59,10.04-1.07,9.74-4.66c-0.39-4.64-9.31-0.42-13.92-0.41
			c-0.21,0-0.23-0.28-0.05-0.35c1.26-0.46,3.35-0.67,3.41-2c0.04-0.83-1.43-0.91-2.24-1.04c6.8-0.29,13.59-0.74,20.39-0.86
			c7.24-0.13,14.47,0.21,21.71,0.44c0.89-2.09,1.45-4.17,1.63-6.44c0.08-1.02,0.1-2.05,0.23-3.06c0.05-0.39,0.1-0.86,0.34-1.18
			c0.64-0.83,1.92-1.2,2.78-1.74c1.65-1.02,3.03-3.27,5.07-3.53c0.34-0.04,0.7-0.05,1.04,0.01h0c0.43,0.08,0.81,0.28,1.09,0.65
			c0.7,0.92,1.13,2.63,2.59,2.53c1.18-0.08,1.97-0.57,3.12-0.01c0.92,0.45,1.65,1.09,2.32,1.86c0.8,0.91,1.6,1.9,2.74,2.39
			c1.1,0.47,2.24,0.42,3.38,0.08c2.83-0.84,7.89-4.43,10.25-0.83c0.45,0.69,0.63,1.48,1.02,2.2c0.2,0.38,0.45,0.7,0.75,0.96
			c0.52,0.47,1.18,0.77,1.92,0.93c2.88,0.61,5.69-0.54,8.57-0.48c0.88,0.01,2.33,0.02,3.01,0.69c0.9,0.89,1.14,2.2,2.69,2.2
			c0.19,0,0.37-0.01,0.54-0.04c1.18-0.16,2.21-0.79,3.38-1.05c0.98-0.22,2.09-0.29,3.06,0.03c2.1,0.7,3.55,2.46,5.98,2.26
			c2.48-0.2,4.54-1.67,6.87-2.4c1.88-0.58,3.88-0.64,5.36,0.82c1.07,1.05,2.02,2.09,3.64,2.14c1.45,0.04,2.62-0.55,3.79-1.34
			c1.22-0.83,2.43-1.73,3.79-2.33c0.63-0.28,1.35-0.59,2.06-0.52c1.3,0.11,2.03,1.19,2.76,2.14c0.71,0.91,1.45,1.81,2.33,2.56
			c0.27,0.23,0.48,0.57,0.76,0.21c0.2-0.26,0.41-0.53,0.6-0.8c0.33-0.46,0.66-0.91,1-1.36c1.11-1.46,2.65-3.23,4.65-3.26
			c3.88-0.08,5.39,4.67,8.69,5.85c2.5,0.89,3.39-1.3,4.67-2.95c1.12-1.43,3.03-2.19,4.64-1.02c1.11,0.81,2.2,1.65,3.46,2.24
			c0.72,0.33,1.67,0.74,2.28,0c0.52-0.63,0.84-1.41,1.27-2.1v0c0.02-0.04,0.04-0.07,0.06-0.11c0.6-0.94,1.31-1.78,2.13-2.54
			c0.07-0.06,0.15-0.07,0.24-0.03c1.84,0.9,3.14,2.78,4.6,4.16c0.74,0.69,1.66,1.63,2.7,1.8c1.05,0.16,2.03-0.38,2.8-1.03
			c1.25-1.06,2.47-2.45,4.22-2.59c0.44-0.04,0.86,0,1.24,0.09c1.24,0.29,2.24,1.15,3.26,2.01c0.86,0.73,2.29,2.19,3.7,2.65
			c0.7-0.11,1.4-0.23,2.1-0.35c1.15-0.94,1.34-2.66,2.25-3.81c1.04-1.31,2.95-1.73,4.53-1.21c0.46,0.15,0.91,0.62,1.36,0.69
			c0.76,0.13,2.14-1.06,2.56-1.55c0.94-1.12,1.97-3.47,3.83-2.47c1.04,0.56,1.71,1.65,3.05,1.22c1.08-0.35,1.37-1.24,1.66-2.23
			c0.39-1.34,1.37-3.22,3.01-3.28c0.11,0,0.22,0,0.33,0h0c0.88,0.04,1.81,0.35,2.66,0.47c1.01,0.13,1.99,0.39,2.93,0.78
			c1.9,0.78,3.49,2.25,4.51,4.02c0.62,1.07,1.23,2.24,1.26,3.51v0.03c0.38-0.04,0.75-0.07,1.13-0.11c4.67-0.41,9.34-0.69,14.02-0.86
			c6.45-0.24,12.92-0.29,19.38-0.3c-0.42,0.08-0.8,0.28-1.19,0.44c-1.86,0.75-3.83,1.83-4.9,3.66c-0.12,0.2-0.25,0.41-0.33,0.63
			C423.66,166.91,431.25,167.63,431.1,169.73z"/>
	</g>
	<rect x="2448" y="2457.41" class="st14" width="273.7" height="257.36"/>
</g>
<g id="designed_by_freepik">
</g>
</svg>
